<?xml version="1.0" standalone="no"?>
<!DOCTYPE svg PUBLIC "-//W3C//DTD SVG 20010904//EN"
 "http://www.w3.org/TR/2001/REC-SVG-20010904/DTD/svg10.dtd">
<svg version="1.0" xmlns="http://www.w3.org/2000/svg"
 width="300.000000pt" height="200.000000pt" viewBox="0 0 300.000000 200.000000"
 preserveAspectRatio="xMidYMid meet">
<metadata>
Created by potrace 1.10, written by Peter Selinger 2001-2011
</metadata>
<g transform="translate(0.000000,200.000000) scale(0.100000,-0.100000)"
fill="#000000" stroke="none">
<path d="M1588 1616 l-48 -33 78 -48 c42 -27 78 -49 80 -50 7 -5 -11 -34 -19
-29 -5 3 -12 -2 -15 -10 -3 -9 -10 -13 -15 -10 -5 3 -9 -2 -9 -11 0 -11 -5
-15 -15 -11 -9 3 -15 0 -15 -9 0 -8 -7 -15 -15 -15 -8 0 -15 -4 -15 -10 0 -5
-7 -10 -16 -10 -8 0 -12 -4 -9 -10 3 -5 -1 -10 -9 -10 -9 0 -16 -4 -16 -10 0
-5 -7 -10 -15 -10 -8 0 -15 -4 -15 -10 0 -20 -27 -9 -102 45 l-78 55 -281
-206 -281 -207 7 -44 c19 -126 16 -122 251 -323 120 -102 248 -212 286 -244
50 -43 74 -57 83 -50 7 5 82 71 167 148 84 76 211 191 283 255 71 64 182 164
245 223 l116 107 20 95 20 96 -298 190 c-164 105 -300 190 -301 189 -1 0 -23
-15 -49 -33z m185 -82 c67 -42 114 -74 105 -70 -26 8 -22 -1 8 -20 22 -15 27
-15 35 -3 6 10 9 10 9 2 0 -7 6 -13 14 -13 7 0 19 -7 26 -15 7 -8 21 -15 31
-15 27 0 23 -13 -11 -39 -17 -12 -28 -27 -24 -33 4 -6 3 -8 -3 -5 -5 3 -22 -5
-39 -19 -19 -17 -25 -27 -16 -30 6 -3 12 -16 12 -28 0 -12 -6 -28 -12 -35 -11
-10 -10 -11 5 -6 10 5 17 18 17 34 0 31 25 71 44 71 7 0 21 10 32 23 10 12 12
16 4 10 -18 -16 -38 -17 -23 -2 16 16 55 17 71 2 8 -7 18 -10 24 -7 6 4 9 3 5
-2 -3 -5 21 -25 53 -43 48 -28 57 -37 50 -51 -5 -9 -10 -38 -12 -63 -2 -26 -6
-47 -10 -47 -4 0 -5 -6 -2 -14 5 -12 -11 -30 -27 -31 -6 0 -66 -47 -103 -80
-90 -80 -106 -92 -110 -81 -2 6 -5 4 -5 -6 -1 -18 -148 -154 -157 -145 -10 10
4 37 23 44 10 3 32 21 48 40 17 18 33 33 37 33 3 0 21 15 40 33 19 17 52 46
73 64 22 18 63 53 90 79 38 35 44 44 26 39 -20 -6 -23 -4 -18 9 4 10 -9 4 -34
-16 -22 -17 -38 -37 -35 -44 8 -21 -107 -116 -130 -107 -10 4 -12 0 -7 -13 4
-12 3 -15 -6 -10 -16 10 -51 -21 -51 -46 0 -12 -9 -20 -27 -24 -16 -3 -44 -19
-63 -36 -21 -18 -26 -25 -12 -19 19 10 22 9 22 -8 0 -11 7 -24 16 -29 18 -10
11 -32 -10 -32 -8 0 -16 -9 -19 -19 -2 -10 -15 -24 -27 -31 -21 -11 -22 -10
-17 9 3 15 1 21 -6 18 -7 -2 -13 -13 -15 -25 -2 -11 -15 -28 -28 -37 -14 -9
-23 -19 -20 -22 3 -4 -1 -14 -10 -24 -14 -15 -18 -16 -30 -4 -8 7 -14 20 -14
29 0 18 38 41 60 38 12 -2 12 -1 2 6 -11 7 -8 14 13 30 15 12 28 28 29 36 1 8
8 22 16 32 17 23 11 18 -147 -120 -100 -86 -135 -121 -103 -101 6 3 10 1 10
-6 0 -7 9 -22 20 -34 l20 -21 -50 -49 c-39 -38 -52 -46 -63 -37 -8 7 -17 9
-20 5 -4 -3 -14 3 -24 14 -10 11 -58 53 -106 93 -49 39 -86 74 -83 77 3 3 -20
26 -52 52 -31 25 -75 64 -97 85 -22 22 -48 40 -58 41 -25 2 -97 75 -97 98 0
10 -4 15 -10 12 -5 -3 -10 0 -10 8 0 42 50 19 118 -53 90 -96 102 -110 102
-120 0 -6 5 -8 10 -5 6 4 34 -14 63 -38 47 -41 53 -44 67 -29 8 9 14 20 13 24
-2 4 7 13 20 19 12 7 41 29 65 49 l43 36 36 -32 c33 -31 38 -32 62 -19 26 14
137 104 243 197 32 28 68 58 80 66 33 23 118 104 118 113 0 4 -13 21 -29 38
l-29 30 32 24 c17 12 43 28 59 35 29 12 32 19 19 40 -10 16 -42 5 -42 -14 0
-8 -6 -13 -12 -12 -7 2 -12 -3 -10 -10 1 -7 -3 -12 -11 -10 -7 2 -160 -118
-339 -266 -279 -230 -325 -272 -315 -285 7 -9 -23 16 -65 54 l-78 69 28 23
c15 12 22 22 16 23 -6 0 -19 -9 -29 -20 -22 -24 -35 -26 -35 -4 0 8 -4 12 -10
9 -5 -3 -10 -2 -10 4 0 5 4 13 10 16 5 3 15 16 21 28 6 14 -1 9 -18 -11 l-28
-33 -34 40 c-19 23 -37 39 -39 36 -6 -6 -122 94 -122 105 0 5 10 12 21 15 12
4 66 39 119 79 442 325 392 296 443 257 75 -56 114 -73 140 -60 33 17 180 130
198 152 14 17 20 18 49 8 49 -17 50 -3 2 16 -23 9 -44 23 -47 32 -3 9 -28 31
-55 49 -42 27 -49 36 -39 48 6 8 18 14 26 14 8 0 70 -34 136 -76z m42 -404 c3
-5 2 -10 -2 -10 -5 0 -21 -11 -36 -26 -15 -14 -32 -22 -39 -18 -6 4 -8 3 -5
-3 4 -6 -15 -28 -41 -49 -26 -21 -56 -46 -67 -56 -11 -9 -58 -50 -105 -89 -47
-40 -92 -78 -100 -86 -33 -30 -63 -53 -71 -53 -21 0 -15 19 14 40 49 36 56 43
84 73 15 15 32 27 40 27 7 0 13 4 13 8 0 5 23 26 51 48 27 21 60 48 72 59 12
11 49 42 82 70 33 27 66 55 73 62 16 16 29 16 37 3z m25 -40 c0 -5 -4 -10 -8
-10 -5 0 -17 -8 -28 -17 -10 -10 -42 -36 -69 -58 -28 -22 -62 -51 -76 -65 -35
-34 -121 -107 -150 -128 -13 -9 -39 -31 -58 -49 -20 -18 -39 -32 -44 -30 -20
6 -6 20 138 142 67 56 81 65 90 57 5 -4 5 -2 1 5 -3 7 13 27 41 50 27 21 68
55 92 75 43 37 71 48 71 28z m-281 -525 c-6 -5 -15 -10 -22 -10 -7 -1 -10 -7
-9 -15 2 -8 0 -12 -4 -7 -4 4 -18 -2 -30 -14 l-22 -21 -7 21 c-8 28 17 55 34
38 10 -9 12 -9 9 3 -2 9 3 14 12 12 8 -2 12 0 8 3 -4 4 -2 17 4 28 10 20 11
20 24 -4 8 -16 9 -27 3 -34z"/>
<path d="M1425 1184 c11 -8 27 -19 35 -24 8 -5 12 -12 7 -16 -4 -4 -24 5 -44
19 -21 15 -39 23 -41 17 -2 -6 -28 -22 -58 -36 -32 -15 -60 -36 -68 -52 -20
-37 -48 -59 -95 -73 -39 -12 -80 -44 -69 -54 3 -3 17 4 32 16 15 11 33 19 40
16 7 -3 18 -1 24 5 8 8 15 8 26 -1 12 -10 14 -9 9 8 -6 25 21 39 42 21 22 -18
18 -40 -6 -40 -11 0 -18 -4 -14 -9 10 -17 -12 -21 -25 -6 -7 8 -17 15 -23 15
-5 0 -2 -9 8 -20 15 -17 16 -20 3 -20 -9 0 -21 7 -28 15 -14 17 -40 20 -40 5
0 -5 11 -17 25 -26 14 -9 22 -20 19 -26 -3 -5 -21 3 -40 17 -30 23 -34 24 -34
8 0 -10 14 -26 31 -36 29 -16 34 -16 56 -2 18 12 23 13 21 3 -2 -7 7 -23 19
-35 18 -18 23 -20 34 -7 6 8 18 14 25 14 8 0 14 5 14 10 0 6 -6 10 -14 10 -8
0 -23 3 -33 7 -16 6 -16 5 -4 -10 18 -23 11 -29 -13 -11 -19 14 -19 14 2 34
11 11 23 20 26 20 3 0 19 14 37 31 23 23 37 29 55 25 25 -7 42 8 23 20 -8 4
-9 3 -5 -4 4 -7 2 -12 -3 -12 -18 0 -12 15 14 38 28 25 60 30 52 8 -6 -15 16
-15 53 1 30 13 94 79 68 70 -10 -4 -18 -2 -18 3 0 6 -5 10 -11 10 -8 0 -7 -5
1 -16 11 -13 10 -16 -8 -21 -12 -3 -22 -12 -22 -19 0 -21 -34 -17 -55 6 -16
18 -16 20 -1 26 9 3 23 3 32 0 8 -3 12 -2 9 4 -3 5 5 15 19 22 14 6 26 15 26
20 0 12 -28 10 -35 -2 -4 -6 -18 2 -35 20 -15 16 -36 30 -47 30 -17 -1 -17 -2
2 -16z m8 -38 c17 -13 16 -15 -10 -34 -25 -18 -29 -19 -53 -4 -25 16 -25 16
-7 -4 18 -22 23 -39 8 -30 -5 3 -11 -3 -14 -14 -4 -14 -14 -20 -34 -20 -52 0
-73 48 -30 72 27 15 78 19 92 8 7 -6 11 -1 12 13 0 12 -1 16 -4 9 -3 -6 -9
-10 -14 -6 -13 8 -1 24 19 24 9 0 25 -7 35 -14z"/>
<path d="M1300 1098 l-25 -9 23 -19 c24 -20 52 -17 52 5 0 23 -23 33 -50 23z"/>
<path d="M1415 1016 c11 -8 16 -16 10 -16 -5 0 -28 -16 -49 -35 -22 -19 -44
-31 -49 -28 -6 4 -7 1 -2 -7 6 -10 4 -12 -8 -7 -9 3 -19 1 -23 -5 -4 -7 -3 -8
4 -4 7 4 12 2 12 -3 0 -12 27 -15 32 -3 2 4 29 29 61 56 32 26 57 49 55 51 -2
1 -16 5 -33 9 -29 7 -29 7 -10 -8z"/>
<path d="M958 1007 c-12 -29 -10 -63 3 -50 6 6 9 23 7 39 -2 24 -4 26 -10 11z"/>
<path d="M973 949 c-4 -12 -11 -18 -20 -15 -8 4 -11 1 -8 -5 4 -6 13 -8 21 -5
8 3 14 1 14 -5 0 -6 14 -2 30 8 17 9 30 21 30 26 0 5 -11 2 -25 -7 -32 -21
-38 -20 -30 4 3 11 3 20 0 20 -4 0 -9 -9 -12 -21z"/>
<path d="M1438 1522 c-37 -26 -67 -50 -68 -55 0 -4 32 16 70 44 39 28 70 52
70 55 0 6 0 6 -72 -44z"/>
<path d="M1559 1508 c-8 -8 -24 -21 -37 -30 -13 -9 -20 -18 -15 -21 10 -6 79
51 71 59 -3 3 -12 -1 -19 -8z"/>
<path d="M1552 1465 c-12 -12 -20 -24 -16 -28 7 -6 64 32 64 43 0 14 -26 6
-48 -15z"/>
<path d="M1470 1436 c0 -16 -27 -29 -42 -19 -7 3 -8 1 -4 -5 4 -7 2 -12 -5
-12 -9 0 -10 -3 -3 -10 8 -8 21 -2 42 17 33 28 40 43 22 43 -5 0 -10 -6 -10
-14z"/>
<path d="M1500 1422 c0 -4 -12 -15 -27 -24 -25 -16 -26 -17 -7 -18 11 0 28 8
37 18 19 21 22 32 7 32 -5 0 -10 -3 -10 -8z"/>
</g>
</svg>
