<?xml version="1.0" encoding="UTF-8"?>
<svg id="Layer_2" data-name="Layer 2" xmlns="http://www.w3.org/2000/svg" viewBox="0 0 301.67 336.42">
  <g id="Layer_1-2" data-name="Layer 1">
    <g>
      <path d="M141.94.09v162.67l35.49-7.93.65-108.13c8.92-12.3,21.75-22.05,34.72-29.65v130.74l87.36-18.95c1.71-.22,1.53-.08,1.5,1.5-.09,5.06-6.92,33.29-10.04,35.89l-78.82,17.98v35.43l88.82-17.96c-1.21,12.98-4.61,25.93-10.2,37.7l-113.55,24.18v-71.36l-2.06-1.12-33.42,7.55c-2.03,2.89,1.02,37.06-1.39,45.52-1.32,4.65-20.49,33.28-24.35,37.02-7.47,7.23-17.84,8.57-27.55,10.87-29.38,6.97-59.39,11.83-88.86,18.42-1.7-1.72,6.72-33.92,10.44-36.96,2.44-1.99,30.65-7.46,36.23-8.68,18.12-3.95,38.83-6.55,56.37-11.49,1.51-.43,2.71-1.04,3.74-2.25v-44.41l-89.82,17.97c-1.47-1.47,5.99-34.49,11.02-37.38l78.36-17.45.46-140.26c1.15-6,25.26-25.63,31.35-28.53,1.21-.58,2.01-1.28,3.56-.93Z"/>
      <path d="M301.61,274.55c-1.1,13.03-4.78,25.84-10.21,37.69l-113.53,24.18c1.54-13.09,4.08-26.45,10.63-38l113.11-23.86Z"/>
    </g>
  </g>
</svg>